<?xml version="1.0" standalone="no"?>
<!DOCTYPE svg PUBLIC "-//W3C//DTD SVG 20010904//EN"
 "http://www.w3.org/TR/2001/REC-SVG-20010904/DTD/svg10.dtd">
<svg version="1.0" xmlns="http://www.w3.org/2000/svg"
 width="279.000000pt" height="180.000000pt" viewBox="0 0 279.000000 180.000000"
 preserveAspectRatio="xMidYMid meet">

<g transform="translate(0.000000,180.000000) scale(0.100000,-0.100000)"
fill="#000000" stroke="none">
<path d="M625 776 c-27 -13 -58 -32 -68 -43 -16 -18 -16 -21 -2 -27 9 -3 18 0
21 8 7 19 75 65 110 76 21 6 23 8 9 9 -11 0 -42 -10 -70 -23z"/>
<path d="M1006 618 c-20 -48 -36 -90 -36 -93 0 -16 43 -2 47 15 4 16 14 20 43
20 30 0 40 -5 45 -20 5 -17 45 -30 45 -15 0 3 -16 45 -36 94 -47 118 -60 118
-108 -1z m64 13 c0 -5 3 -16 6 -25 4 -12 0 -16 -16 -16 -16 0 -20 4 -16 16 3
9 6 20 6 25 0 5 5 9 10 9 6 0 10 -4 10 -9z"/>
<path d="M1177 704 c-4 -4 -7 -47 -7 -96 0 -81 2 -88 20 -88 17 0 20 7 21 48
1 26 1 50 0 55 -3 18 11 3 45 -48 23 -34 44 -55 55 -55 17 0 19 9 19 96 0 86
-2 95 -17 92 -14 -2 -19 -16 -23 -56 l-5 -54 -35 54 c-33 50 -57 67 -73 52z"/>
<path d="M1375 652 c-3 -31 -7 -74 -9 -94 -3 -32 -1 -38 14 -38 14 0 20 11 27
53 l9 52 18 -52 c10 -29 23 -53 30 -53 7 0 21 24 31 53 l19 52 9 -52 c7 -42
13 -53 27 -53 16 0 18 7 14 63 -9 112 -12 124 -36 123 -16 -1 -26 -14 -41 -54
-11 -29 -21 -51 -23 -50 -1 2 -11 25 -22 52 -13 34 -25 50 -40 52 -18 3 -21
-3 -27 -54z"/>
<path d="M1600 615 l0 -95 50 0 c38 0 50 4 50 15 0 10 -10 15 -30 15 -26 0
-30 4 -30 26 0 23 3 26 30 22 24 -4 30 -1 30 14 0 13 -8 18 -30 18 -23 0 -30
4 -30 20 0 16 7 20 30 20 23 0 30 4 30 20 0 17 -7 20 -50 20 l-50 0 0 -95z"/>
<path d="M1740 616 c0 -88 2 -96 19 -96 16 0 20 8 23 37 l3 37 25 -37 c19 -28
32 -37 53 -37 l28 0 -30 37 c-26 31 -29 39 -17 52 40 47 16 88 -56 97 l-48 7
0 -97z m78 32 c-5 -34 -38 -37 -38 -4 0 20 5 26 21 26 15 0 20 -5 17 -22z"/>
<path d="M1917 703 c-4 -3 -7 -46 -7 -95 0 -81 2 -88 20 -88 16 0 20 7 20 35
0 19 4 35 9 35 5 0 21 -16 35 -35 21 -27 34 -35 59 -35 l31 0 -42 43 c-23 23
-42 47 -42 53 0 5 13 25 30 44 35 41 37 50 11 50 -11 0 -35 -19 -55 -42 l-36
-43 0 43 c0 40 -14 55 -33 35z"/>
<path d="M2100 632 c0 -91 13 -112 73 -112 56 0 67 19 67 111 0 71 -2 80 -17
77 -15 -3 -19 -17 -23 -73 -5 -67 -6 -70 -30 -70 -24 0 -25 3 -28 73 -3 64 -5
72 -22 72 -18 0 -20 -7 -20 -78z"/>
<path d="M2280 615 c0 -88 2 -95 20 -95 16 0 19 8 22 58 l3 57 35 -57 c26 -43
40 -58 57 -58 22 0 23 3 23 95 0 88 -2 95 -20 95 -16 0 -19 -8 -22 -62 l-3
-62 -38 62 c-26 42 -45 62 -58 62 -17 0 -19 -8 -19 -95z"/>
<path d="M2505 687 c-17 -14 -28 -36 -32 -63 -10 -73 60 -125 132 -98 18 7 45
54 45 79 0 11 -11 15 -45 15 -33 0 -45 -4 -45 -15 0 -9 9 -15 21 -15 23 0 21
-18 -4 -34 -18 -12 -52 13 -63 46 -13 42 59 94 81 58 5 -8 11 -7 21 1 20 16
18 24 -11 37 -39 18 -71 14 -100 -11z"/>
<path d="M495 650 c-27 -28 -44 -50 -37 -50 7 0 26 15 42 33 28 30 29 31 30
10 0 -14 -6 -23 -14 -23 -8 0 -18 -4 -21 -10 -8 -13 155 -13 175 0 24 15 -1
44 -46 51 -37 6 -37 6 14 8 l52 1 0 -35 c0 -35 13 -47 23 -21 3 8 22 16 44 18
27 2 39 8 41 21 7 37 -16 47 -112 47 -98 0 -120 -7 -114 -36 2 -14 13 -20 41
-22 52 -4 46 -22 -8 -22 -45 0 -45 0 -45 34 0 19 -4 37 -8 40 -5 3 -31 -17
-57 -44z m275 10 c0 -5 -13 -10 -30 -10 -16 0 -30 5 -30 10 0 6 14 10 30 10
17 0 30 -4 30 -10z"/>
<path d="M812 653 l3 -48 40 -3 c41 -3 41 12 0 20 -15 2 -21 12 -23 41 -5 55
-24 45 -20 -10z"/>
<path d="M790 591 c0 -45 -58 -129 -100 -144 -13 -5 -13 -6 1 -6 28 -2 98 57
119 100 12 22 20 42 18 43 -2 1 -11 8 -20 15 -16 12 -18 11 -18 -8z"/>
</g>
</svg>
